<?xml version="1.0" encoding="utf-8"?>
<!-- Generator: Adobe Illustrator 18.1.1, SVG Export Plug-In . SVG Version: 6.00 Build 0)  -->
<svg version="1.1" id="Layer_1" xmlns="http://www.w3.org/2000/svg" xmlns:xlink="http://www.w3.org/1999/xlink" x="0px" y="0px"
	 viewBox="0 0 279 225" enable-background="new 0 0 279 225" xml:space="preserve">
<ellipse stroke="#231F20" stroke-miterlimit="10" cx="10.9" cy="129.6" rx="2" ry="1.8"/>
<ellipse stroke="#231F20" stroke-miterlimit="10" cx="273.5" cy="118.6" rx="2" ry="1.8"/>
<ellipse stroke="#231F20" stroke-miterlimit="10" cx="98.5" cy="184.3" rx="2" ry="1.8"/>
<ellipse stroke="#231F20" stroke-miterlimit="10" cx="186" cy="217.1" rx="2" ry="1.8"/>
<ellipse stroke="#231F20" stroke-miterlimit="10" cx="98.5" cy="74.9" rx="2" ry="1.8"/>
<ellipse stroke="#231F20" stroke-miterlimit="10" cx="273.5" cy="162.4" rx="2" ry="1.8"/>
<ellipse stroke="#231F20" stroke-miterlimit="10" cx="186" cy="107.7" rx="2" ry="1.8"/>
<ellipse stroke="#231F20" stroke-miterlimit="10" cx="273.5" cy="140.5" rx="2" ry="1.8"/>
<ellipse stroke="#231F20" stroke-miterlimit="10" cx="186" cy="42.1" rx="2" ry="1.8"/>
<ellipse stroke="#231F20" stroke-miterlimit="10" cx="273.5" cy="96.8" rx="2" ry="1.8"/>
<ellipse stroke="#231F20" stroke-miterlimit="10" cx="186" cy="151.4" rx="2" ry="1.8"/>
<line fill="none" stroke="#231F20" stroke-miterlimit="10" x1="10.9" y1="129.6" x2="98.5" y2="74.9"/>
<line fill="none" stroke="#231F20" stroke-miterlimit="10" x1="10.9" y1="129.6" x2="98.5" y2="184.3"/>
<line fill="none" stroke="#231F20" stroke-miterlimit="10" x1="98.5" y1="74.9" x2="186" y2="42.1"/>
<line fill="none" stroke="#231F20" stroke-miterlimit="10" x1="98.5" y1="74.9" x2="186" y2="107.7"/>
<line fill="none" stroke="#231F20" stroke-miterlimit="10" x1="98.5" y1="184.3" x2="186" y2="151.4"/>
<line fill="none" stroke="#231F20" stroke-miterlimit="10" x1="98.5" y1="184.3" x2="186" y2="217.1"/>
<line fill="none" stroke="#231F20" stroke-miterlimit="10" x1="186" y1="107.7" x2="273.5" y2="96.8"/>
<line fill="none" stroke="#231F20" stroke-miterlimit="10" x1="186" y1="107.7" x2="273.5" y2="118.6"/>
<line fill="none" stroke="#231F20" stroke-miterlimit="10" x1="186" y1="151.4" x2="273.5" y2="140.5"/>
<line fill="none" stroke="#231F20" stroke-miterlimit="10" x1="186" y1="151.4" x2="273.5" y2="162.4"/>
<text transform="matrix(1 0 0 1 21.879 85.8135)" font-family="'LatinModernMath-Regular'" font-size="14.586">W 1/2</text>
<text transform="matrix(1 0 0 1 109.395 52.9947)" font-family="'LatinModernMath-Regular'" font-size="14.586">W 2/3</text>
<text transform="matrix(1 0 0 1 109.395 162.3897)" font-family="'LatinModernMath-Regular'" font-size="14.586">W 1/3</text>
<text transform="matrix(1 0 0 1 195.9991 142.0303)" font-family="'LatinModernMath-Regular'" font-size="14.586">W 2/3</text>
<text transform="matrix(1 0 0 1 21.879 184.2681)" font-family="'LatinModernMath-Regular'" font-size="14.586">L 1/2</text>
<text transform="matrix(1 0 0 1 196.9112 173.3282)" font-family="'LatinModernMath-Regular'" font-size="14.586">L 1/3</text>
<text transform="matrix(1 0 0 1 109.395 107.6915)" font-family="'LatinModernMath-Regular'" font-size="14.586">L 1/3</text>
<text transform="matrix(1 0 0 1 109.395 217.0865)" font-family="'LatinModernMath-Regular'" font-size="14.586">L 2/3</text>
<text transform="matrix(1 0 0 1 195.9991 124.4044)" font-family="'LatinModernMath-Regular'" font-size="14.586">L 2/3</text>
<text transform="matrix(1 0 0 1 196.9112 96.7529)" font-family="'LatinModernMath-Regular'" font-size="14.586">W 1/3</text>
<text transform="matrix(1 0 0 1 8.633328e-05 20.1758)"><tspan x="0" y="0" font-family="'LatinModernMath-Regular'" font-size="14.586">    </tspan><tspan x="19.4" y="0" font-family="'LatinModernMath-Regular'" font-size="14.586" letter-spacing="19">	</tspan></text>
<text transform="matrix(1 0 0 1 21.879 20.1758)"><tspan x="0" y="0" font-family="'LatinModernMath-Regular'" font-size="14.586">Game 1</tspan><tspan x="49.5" y="0" font-family="'LatinModernMath-Regular'" font-size="14.586" letter-spacing="33">	</tspan><tspan x="87.5" y="0" font-family="'LatinModernMath-Regular'" font-size="14.586">Game 2</tspan><tspan x="137" y="0" font-family="'LatinModernMath-Regular'" font-size="14.586" letter-spacing="33">	</tspan><tspan x="175" y="0" font-family="'LatinModernMath-Regular'" font-size="14.586">Game 3</tspan></text>
</svg>
