<?xml version="1.0" encoding="utf-8"?>
<!-- Generator: Adobe Illustrator 18.1.1, SVG Export Plug-In . SVG Version: 6.00 Build 0)  -->
<svg version="1.1" id="Layer_1" xmlns="http://www.w3.org/2000/svg" xmlns:xlink="http://www.w3.org/1999/xlink" x="0px" y="0px"
	 viewBox="0 0 800 800" enable-background="new 0 0 800 800" xml:space="preserve">
<ellipse stroke="#231F20" stroke-miterlimit="10" cx="31.3" cy="449" rx="5.7" ry="5.2"/>
<ellipse stroke="#231F20" stroke-miterlimit="10" cx="784.2" cy="417.5" rx="5.7" ry="5.2"/>
<ellipse stroke="#231F20" stroke-miterlimit="10" cx="282.4" cy="605.9" rx="5.7" ry="5.2"/>
<ellipse stroke="#231F20" stroke-miterlimit="10" cx="533.3" cy="699.9" rx="5.7" ry="5.2"/>
<ellipse stroke="#231F20" stroke-miterlimit="10" cx="282.4" cy="292.2" rx="5.7" ry="5.2"/>
<ellipse stroke="#231F20" stroke-miterlimit="10" cx="784.2" cy="543.1" rx="5.7" ry="5.2"/>
<ellipse stroke="#231F20" stroke-miterlimit="10" cx="533.3" cy="386.2" rx="5.7" ry="5.2"/>
<ellipse stroke="#231F20" stroke-miterlimit="10" cx="784.2" cy="480.3" rx="5.7" ry="5.2"/>
<ellipse stroke="#231F20" stroke-miterlimit="10" cx="533.3" cy="198.1" rx="5.7" ry="5.2"/>
<ellipse stroke="#231F20" stroke-miterlimit="10" cx="784.2" cy="355" rx="5.7" ry="5.2"/>
<ellipse stroke="#231F20" stroke-miterlimit="10" cx="533.3" cy="511.5" rx="5.7" ry="5.2"/>
<line fill="none" stroke="#231F20" stroke-miterlimit="10" x1="31.3" y1="449" x2="282.4" y2="292.2"/>
<line fill="none" stroke="#231F20" stroke-miterlimit="10" x1="31.3" y1="449" x2="282.4" y2="605.9"/>
<line fill="none" stroke="#231F20" stroke-miterlimit="10" x1="282.4" y1="292.2" x2="533.3" y2="198.1"/>
<line fill="none" stroke="#231F20" stroke-miterlimit="10" x1="282.4" y1="292.2" x2="533.3" y2="386.2"/>
<line fill="none" stroke="#231F20" stroke-miterlimit="10" x1="282.4" y1="605.9" x2="533.3" y2="511.5"/>
<line fill="none" stroke="#231F20" stroke-miterlimit="10" x1="282.4" y1="605.9" x2="533.3" y2="699.9"/>
<line fill="none" stroke="#231F20" stroke-miterlimit="10" x1="533.3" y1="386.2" x2="784.2" y2="355"/>
<line fill="none" stroke="#231F20" stroke-miterlimit="10" x1="533.3" y1="386.2" x2="784.2" y2="417.5"/>
<line fill="none" stroke="#231F20" stroke-miterlimit="10" x1="533.3" y1="511.5" x2="784.2" y2="480.3"/>
<line fill="none" stroke="#231F20" stroke-miterlimit="10" x1="533.3" y1="511.5" x2="784.2" y2="543.1"/>
<text transform="matrix(1 0 0 1 62.7354 323.4794)" font-family="'LatinModernMath-Regular'" font-size="41.8237">W 1/2</text>
<text transform="matrix(1 0 0 1 313.6779 229.3752)" font-family="'LatinModernMath-Regular'" font-size="41.8237">W 2/3</text>
<text transform="matrix(1 0 0 1 313.6779 543.0532)" font-family="'LatinModernMath-Regular'" font-size="41.8237">W 1/3</text>
<text transform="matrix(1 0 0 1 562.0053 484.6745)" font-family="'LatinModernMath-Regular'" font-size="41.8237">W 2/3</text>
<text transform="matrix(1 0 0 1 62.7354 605.7866)" font-family="'LatinModernMath-Regular'" font-size="41.8237">L 1/2</text>
<text transform="matrix(1 0 0 1 564.6204 574.4178)" font-family="'LatinModernMath-Regular'" font-size="41.8237">L 1/3</text>
<text transform="matrix(1 0 0 1 313.6779 386.2124)" font-family="'LatinModernMath-Regular'" font-size="41.8237">L 1/3</text>
<text transform="matrix(1 0 0 1 313.6779 699.8894)" font-family="'LatinModernMath-Regular'" font-size="41.8237">L 2/3</text>
<text transform="matrix(1 0 0 1 562.0053 434.1339)" font-family="'LatinModernMath-Regular'" font-size="41.8237">L 2/3</text>
<text transform="matrix(1 0 0 1 564.6204 354.8467)" font-family="'LatinModernMath-Regular'" font-size="41.8237">W 1/3</text>
<text transform="matrix(1 0 0 1 9.097843e-04 135.2724)" font-family="'LatinModernMath-Regular'" font-size="41.8237">    </text>
<text transform="matrix(1 0 0 1 55.6279 135.2724)" font-family="'LatinModernMath-Regular'" font-size="41.8237" letter-spacing="54"> </text>
<text transform="matrix(1 0 0 1 62.7354 135.2724)" font-family="'LatinModernMath-Regular'" font-size="41.8237">Game 1</text>
<text transform="matrix(1 0 0 1 204.671 135.2724)" font-family="'LatinModernMath-Regular'" font-size="41.8237" letter-spacing="94"> </text>
<text transform="matrix(1 0 0 1 313.6313 135.2724)" font-family="'LatinModernMath-Regular'" font-size="41.8237">Game 2</text>
<text transform="matrix(1 0 0 1 455.567 135.2724)" font-family="'LatinModernMath-Regular'" font-size="41.8237" letter-spacing="94"> </text>
<text transform="matrix(1 0 0 1 564.5283 135.2724)" font-family="'LatinModernMath-Regular'" font-size="41.8237">Game 3</text>
<path fill="none" stroke="#000000" stroke-miterlimit="10" d="M115.2,488.9c21.4,3.5,44-1.7,61.8-14.1s30.4-31.9,34.4-53.2
	c0.5,15.9,0.9,32.2-3.6,47.4c-7.4,24.9-28.5,45.1-53.7,51.5"/>
</svg>
