<?xml version="1.0" encoding="utf-8"?>
<!-- Generator: Adobe Illustrator 18.1.1, SVG Export Plug-In . SVG Version: 6.00 Build 0)  -->
<svg version="1.1" id="Layer_1" xmlns="http://www.w3.org/2000/svg" xmlns:xlink="http://www.w3.org/1999/xlink" x="0px" y="0px"
	 viewBox="0 0 164 158" enable-background="new 0 0 164 158" xml:space="preserve">
<ellipse fill="#FFFFFF" fill-opacity="0" stroke="#231F20" stroke-miterlimit="10" cx="80.7" cy="93.2" rx="50.6" ry="47.2"/>
<ellipse fill="#FFFFFF" fill-opacity="0" stroke="#231F20" stroke-miterlimit="10" cx="106.2" cy="48.8" rx="50.6" ry="47.2"/>
<ellipse fill="#FFFFFF" fill-opacity="0" stroke="#231F20" stroke-miterlimit="10" cx="52.1" cy="49" rx="50.6" ry="47.2"/>
<text transform="matrix(1 0 0 1 5.1113 -40.111)" font-family="'LatinModernMath-Regular'" font-size="12">  </text>
<text transform="matrix(1 0 0 1 1.8891 11.2358)" font-family="'LatinModernMath-Regular'" font-size="12">M</text>
<text transform="matrix(1 0 0 1 144.0002 10.1247)" font-family="'LatinModernMath-Regular'" font-size="12">E</text>
<text transform="matrix(1 0 0 1 76.1113 155.6802)" font-family="'LatinModernMath-Regular'" font-size="12">S</text>
<text transform="matrix(1 0 0 1 28.3335 44.2357)" font-family="'LatinModernMath-Regular'" font-size="12">1x</text>
<text transform="matrix(1 0 0 1 120.0002 44.569)" font-family="'LatinModernMath-Regular'" font-size="12">1x</text>
<text transform="matrix(1 0 0 1 73.3335 114.569)" font-family="'LatinModernMath-Regular'" font-size="12">1x</text>
<text transform="matrix(1 0 0 1 72.3335 34.2357)" font-family="'LatinModernMath-Regular'" font-size="12">2x</text>
<text transform="matrix(1 0 0 1 43.0002 81.8047)" font-family="'LatinModernMath-Regular'" font-size="12">2x</text>
<text transform="matrix(1 0 0 1 103.3335 81.8047)" font-family="'LatinModernMath-Regular'" font-size="12">2x</text>
<text transform="matrix(1 0 0 1 73.6668 65.138)" font-family="'LatinModernMath-Regular'" font-size="12">3x</text>
</svg>
